<svg width="75" height="44" viewBox="0 0 75 44" fill="none" xmlns="http://www.w3.org/2000/svg">
<mask id="mask0_1414_3154" style="mask-type:luminance" maskUnits="userSpaceOnUse" x="0" y="0" width="75" height="44">
<path d="M74.1458 0.165405H0.0273438V43.1654H74.1458V0.165405Z" fill="white"/>
</mask>
<g mask="url(#mask0_1414_3154)">
<path d="M50.0094 8.23462C49.387 8.83152 48.5949 9.40014 47.7688 9.89238C56.3009 10.874 66.7935 12.6874 70.0977 13.4286C71.218 13.6803 71.614 14.7893 71.6678 15.8247L71.6763 32.92C71.6763 33.7885 71.0907 34.7786 70.0128 35.0389C65.263 36.1761 43.4151 39.2399 37.0556 39.2088C31.6325 39.1833 9.22159 36.1988 4.15777 35.0615C2.94415 34.7899 2.57922 33.5141 2.57922 32.4136V15.6182C2.57922 14.7072 3.16481 13.7171 4.24547 13.4597C7.3856 12.7072 17.9036 10.8514 26.5743 9.86409C25.7426 9.32942 24.9675 8.73251 24.3763 8.18652C16.2176 9.30679 7.07442 10.8542 4.14646 11.5558C2.16053 12.0282 1.12514 13.7907 1.07422 15.3409V33.7234C1.07422 35.7122 1.75317 37.1747 3.77869 37.6302C8.90475 38.7816 31.4628 42.2838 37.0528 42.3008C43.2453 42.3178 65.2404 38.807 70.1062 37.6444C72.143 37.1578 73.1813 35.3161 73.1813 33.7376L73.1756 15.2985C73.136 13.4003 72.4401 12.0084 70.4768 11.5699C67.4244 10.8853 58.1624 9.36054 50.0122 8.24027" fill="#4A4A4A"/>
<path d="M17.0322 24.2179C18.3222 23.5531 18.9559 22.3282 18.9559 21.0382C18.9559 17.5133 15.9261 16.9136 13.4706 16.9136L8.59632 16.9221C8.22573 16.9221 7.71086 16.939 7.28369 17.0409C6.87915 17.1371 6.47461 17.3238 6.47461 17.7255C6.47461 17.8952 6.51139 18.031 6.56796 18.1527C6.61889 18.2686 6.68678 18.3761 6.7575 18.5006C6.85369 18.6704 7.00079 18.9561 7.00362 19.1767L6.99514 30.501C6.99514 32.139 7.82402 32.6567 9.04046 32.6567H13.9543C16.8795 32.6567 19.4708 31.3101 19.4708 27.9719C19.4708 25.887 18.5061 24.7017 17.0322 24.2179ZM10.5653 19.6944H13.1651C14.424 19.6944 15.5386 20.1046 15.5386 21.5134C15.5386 22.6761 14.8341 23.3325 13.2669 23.3325H10.5624V19.6944H10.5653ZM13.332 29.7683H10.5653V25.7427H12.9218C14.5852 25.7427 16.0563 25.9888 16.0563 27.7767C16.0563 29.5646 14.6616 29.7683 13.332 29.7683Z" fill="#4A4A4A"/>
<path fill-rule="evenodd" clip-rule="evenodd" d="M30.8685 29.0096C30.8685 30.0478 31.1174 30.3703 31.3437 30.5401C31.406 30.5853 31.6436 30.7268 31.6973 30.7692C31.8105 30.8626 31.8869 30.9927 31.8869 31.2162C31.8869 32.0564 30.8091 32.4439 30.0537 32.4439H29.7256C28.4299 32.4468 27.9377 31.6462 27.8471 30.7126C26.6533 31.997 25.2756 32.4496 23.6829 32.4496C21.9092 32.4496 20.127 31.202 20.127 29.151C20.127 26.4607 22.1412 25.7224 24.5005 25.4423L26.3789 25.2273C27.1229 25.1396 27.6435 24.9727 27.6435 24.1438C27.6435 23.3149 26.8146 22.9302 25.7735 22.9302C24.6533 22.9302 24.0847 23.3517 23.6405 23.7732C23.5273 23.8807 23.4227 23.9882 23.318 24.0901C23.2133 24.1947 23.1087 24.2881 22.9983 24.373C22.7748 24.5427 22.5287 24.6558 22.2034 24.6558C21.3915 24.6558 20.82 24.0703 20.82 23.3658C20.82 22.0362 22.6221 20.4351 25.7933 20.4351C28.7439 20.4351 30.8741 21.4054 30.8741 23.7562L30.8685 29.0124V29.0096ZM27.5275 26.9388C27.3634 27.0576 27.1597 27.1397 26.9617 27.2019C26.7127 27.2783 26.461 27.3207 26.2799 27.3547L25.1597 27.5272C23.8668 27.7224 23.236 28.1241 23.236 29.0011C23.236 29.6433 23.8329 30.2147 24.8739 30.2147C26.5402 30.2147 27.5246 29.1143 27.5246 28.0081V26.9388H27.5275Z" fill="#4A4A4A"/>
<path d="M57.2457 15.7786C58.2075 15.7786 58.9855 16.5565 58.9855 17.5184C58.9855 18.4802 58.2075 19.2582 57.2457 19.2582C56.2838 19.2582 55.5059 18.4802 55.5059 17.5184C55.5059 16.5565 56.2838 15.7786 57.2457 15.7786Z" fill="#4A4A4A"/>
<path d="M59.7012 31.3152C59.6503 31.2077 59.5824 31.1058 59.5145 30.9842C59.3872 30.7607 59.2571 30.4665 59.2571 29.9035V22.2427C59.2571 21.1508 58.6403 20.6472 57.6813 20.6472C57.6049 20.6472 57.4352 20.65 57.3645 20.6585C57.0024 20.667 56.5299 20.6925 56.1452 20.7887C55.7831 20.8792 55.4238 21.0461 55.4238 21.3856C55.4238 21.5468 55.4634 21.6656 55.52 21.7703C55.5455 21.8184 55.7067 22.0504 55.7067 22.0504C55.8312 22.2343 56.0405 22.5624 56.0405 23.1254C56.0405 23.1848 56.0292 30.789 56.0292 30.789C56.0292 31.6377 56.363 32.3958 57.5173 32.4439C57.5173 32.4439 58.5215 32.4666 58.9572 32.3958C59.3787 32.3279 59.7889 32.1582 59.7889 31.7169C59.7889 31.5556 59.7521 31.4312 59.6955 31.3123" fill="#4A4A4A"/>
<path d="M34.0296 32.4464C32.8811 32.3955 32.5416 31.6374 32.5416 30.7915V22.8365C32.5218 22.3386 32.3945 22.0784 32.2729 21.8662C32.2078 21.753 32.1427 21.654 32.0946 21.5493C32.0437 21.4362 32.0098 21.3145 32.0098 21.1589C32.0098 20.794 32.3888 20.6243 32.7651 20.5366C33.164 20.4461 34.089 20.4319 34.089 20.4319C35.0509 20.4659 35.4752 21.125 35.4752 22.084L35.4979 22.3018C36.3607 21.1986 37.4781 20.4291 39.184 20.4291C41.0624 20.4291 43.1445 21.3966 43.1445 24.6555V29.9032C43.1445 30.4662 43.2746 30.7576 43.4019 30.9839C43.4698 31.1055 43.5377 31.2045 43.5887 31.3149C43.6424 31.4309 43.6792 31.5582 43.6792 31.7194C43.6792 32.1607 43.2718 32.3305 42.8475 32.3984C42.4118 32.4691 41.4075 32.4464 41.4075 32.4464C40.2505 32.3984 39.911 31.6402 39.911 30.7915V25.2864C39.911 24.053 39.3254 23.1873 38.0411 23.1873C36.9915 23.1873 35.7694 24.0699 35.7694 25.5891V30.0645C35.7921 30.5511 35.9194 30.8113 36.041 31.0207C36.1061 31.1338 36.1711 31.23 36.2164 31.3347C36.2673 31.445 36.3013 31.5666 36.3013 31.7222C36.3013 32.1636 35.8939 32.3333 35.4696 32.4012C35.0339 32.4719 34.024 32.4493 34.024 32.4493" fill="#4A4A4A"/>
<path d="M61.6973 22.9494H61.2418C60.3536 22.9494 59.9434 22.5844 59.9434 21.8319C59.9434 21.0794 60.3536 20.7117 61.2418 20.7117H61.6973C61.6973 20.7117 61.686 19.6763 61.686 19.6169C61.686 19.0567 61.5587 18.8021 61.4314 18.6182C61.4314 18.6182 61.2701 18.3891 61.2418 18.3382C61.1853 18.2335 61.1457 18.1147 61.1457 17.9534C61.1457 17.614 61.5049 17.4442 61.867 17.3565C62.2518 17.2604 63.2306 17.2151 63.307 17.2151C64.266 17.2151 64.9223 17.7809 64.9223 18.8729V20.7117H65.7767C66.6904 20.7117 67.2449 20.9974 67.2449 21.8319C67.2449 22.6665 66.6932 22.9494 65.7767 22.9494H64.9223V29.173C64.9223 29.5889 65.1288 29.8237 65.6522 29.8237H66.0963C66.8036 29.8237 67.2477 30.2396 67.2477 30.9638C67.2477 31.9511 66.4132 32.449 64.9365 32.449C62.6705 32.449 61.6945 31.4786 61.6945 29.5606V22.9494H61.6973Z" fill="#4A4A4A"/>
<path d="M54.151 20.7717C53.8144 20.6783 53.3929 20.6642 53.0477 20.6642C52.3575 20.6642 52.2952 20.6642 52.2952 20.6642C51.1806 20.7321 50.8893 21.7222 50.8044 22.039L48.8977 28.4721L46.9768 21.9938C46.8948 21.6769 46.6006 20.6868 45.486 20.6189C45.486 20.6189 45.4237 20.6161 44.7335 20.6161C44.3883 20.6161 43.9668 20.6302 43.6302 20.7236C43.302 20.8141 43.0078 20.998 43.0078 21.3686C43.0078 21.7392 43.1775 21.9061 43.3643 22.1069C43.4095 22.1579 43.4604 22.2088 43.5085 22.2654C43.5566 22.3219 43.6076 22.3842 43.6585 22.4549C43.7575 22.5964 43.8537 22.7717 43.9357 23.0094C43.9527 23.0603 44.0347 23.3262 44.063 23.3856L46.9033 31.2699C47.1975 32.1101 47.4181 32.4637 48.7845 32.492C50.3461 32.492 50.5696 32.2006 50.8808 31.318L53.721 23.4337C53.7465 23.3715 53.8314 23.1056 53.8483 23.0575C53.9304 22.8198 54.0294 22.6444 54.1284 22.503C54.1765 22.4323 54.3773 22.2031 54.4226 22.1522C54.6093 21.9514 54.7791 21.7731 54.7791 21.4139C54.7791 21.0546 54.4849 20.8622 54.1567 20.7689" fill="#4A4A4A"/>
<path d="M44.7453 15.6217C44.5161 11.6244 41.2062 8.45593 37.1524 8.45593C33.0985 8.45593 29.7603 11.6526 29.5566 15.6726C29.5566 15.6952 29.5595 15.8169 29.5962 15.9102C29.7264 16.3459 30.2243 16.2214 30.8353 16.145C31.3558 16.0799 31.8368 16.0121 31.933 15.7801C31.9952 15.6245 31.998 15.5 31.998 15.4859C32.2866 12.8946 34.479 10.8775 37.1495 10.8775C39.8201 10.8775 41.9276 12.821 42.2784 15.3444C42.2841 15.4434 42.2982 15.616 42.3237 15.698C42.3633 15.8225 42.3944 15.8225 42.4538 15.8904L42.4566 15.8876C42.6433 16.0658 43.0281 16.0856 43.4722 16.1422C44.0607 16.2157 44.5416 16.3346 44.6887 15.9413C44.6887 15.9413 44.6887 15.9413 44.6887 15.9328C44.6943 15.9187 44.7 15.8961 44.7056 15.8791C44.7311 15.7857 44.7368 15.6641 44.7396 15.6245" fill="#4A4A4A"/>
<path d="M36.082 4.2653C36.082 2.42083 36.6846 0.924316 37.1259 0.924316C37.4908 0.924316 38.0878 2.42649 38.0878 4.27096C38.0878 6.11543 37.7568 7.60629 37.1259 7.60629C36.4951 7.60629 36.082 6.10978 36.082 4.2653Z" fill="#4A4A4A"/>
<path d="M40.5278 5.54849C41.2067 4.37447 42.2393 3.70118 42.5958 3.90487C42.89 4.0746 42.8164 5.30803 42.1375 6.48204C41.4585 7.65605 40.6466 8.45381 40.1374 8.1596C39.631 7.86539 39.8489 6.7225 40.5278 5.54849Z" fill="#4A4A4A"/>
<path d="M48.6306 12.0248C50.5882 12.0248 52.1753 12.65 52.1753 13.1083C52.1753 13.4873 50.5826 14.1069 48.625 14.1069C46.6673 14.1069 45.0859 13.7646 45.0859 13.1083C45.0859 12.452 46.673 12.0248 48.6306 12.0248Z" fill="#4A4A4A"/>
<path d="M45.8262 6.92962C47.7442 5.8235 49.6113 5.47271 49.8433 5.87159C50.0356 6.20258 48.7852 7.64252 46.87 8.75146C44.9548 9.85758 43.232 10.4517 42.9039 9.88021C42.5729 9.30877 43.911 8.03857 45.829 6.92962" fill="#4A4A4A"/>
<path d="M33.8664 5.49831C33.1875 4.3243 32.1549 3.65101 31.7984 3.8547C31.5042 4.02443 31.5778 5.25785 32.2567 6.43187C32.9357 7.60588 33.7476 8.40364 34.2568 8.10943C34.7632 7.81522 34.5454 6.67233 33.8664 5.49831Z" fill="#4A4A4A"/>
<path d="M25.654 12.0308C23.6964 12.0308 22.1094 12.656 22.1094 13.1142C22.1094 13.4933 23.7021 14.1129 25.6597 14.1129C27.6173 14.1129 29.1959 13.7706 29.1959 13.1142C29.1959 12.4579 27.6088 12.0308 25.6512 12.0308" fill="#4A4A4A"/>
<path d="M28.5014 6.8753C26.5834 5.76918 24.7163 5.41839 24.4843 5.81727C24.2919 6.14826 25.5423 7.58819 27.4575 8.69714C29.3756 9.80326 31.0956 10.3973 31.4266 9.82589C31.7575 9.25444 30.4195 7.98425 28.5014 6.8753Z" fill="#4A4A4A"/>
</g>
</svg>
