<?xml version="1.0" encoding="UTF-8"?><svg id="Layer_2" xmlns="http://www.w3.org/2000/svg" viewBox="0 0 594.86 194.8"><defs><style>.cls-1{fill:#0e1f26;}</style></defs><g id="Layer_1-2"><path class="cls-1" d="m103.75,157.93c-5.23-5.23-13.11-6.48-19.87-3.49-12.54,5.54-28.29,3.33-38.26-6.64-6.41-6.41-9.94-14.94-9.94-23.99s3.53-17.61,9.94-23.99c9.98-10,25.72-12.22,38.26-6.66,6.77,3,14.66,1.76,19.89-3.48l.31-.31c8.7-8.7,6.03-23.49-5.23-28.46-25.71-11.35-57.99-6.8-78.46,13.65C7.23,87.73,0,105.23,0,123.81s7.25,36.07,20.4,49.26c13.15,13.13,30.64,20.37,49.23,20.37,10.47,0,20.58-2.3,29.76-6.65,10.98-5.2,13.49-19.71,4.91-28.3l-.55-.55Z"/><path class="cls-1" d="m410.78,0h0c-9.86,0-17.85,7.99-17.85,17.85v44.6c-10.37-5.96-22.37-9.38-35.16-9.38-14.2,0-27.45,4.21-38.55,11.43-7.77,5.06-14.49,11.6-19.76,19.22-7.92,11.43-12.56,25.3-12.57,40.23,0,39.06,31.82,70.86,70.88,70.86,3.86,0,7.65-.31,11.35-.91,14.55-2.35,20.18-20.34,9.77-30.76-4.13-4.13-9.98-5.99-15.74-5.08-2.42.38-4.92.51-7.48.35-17.3-1.03-31.33-15.06-32.36-32.36-.33-5.61.68-10.96,2.75-15.75,3.77-8.76,11.06-15.65,20.09-18.89,4.56-1.64,9.57-2.34,14.78-1.88,17.13,1.52,30.67,15.83,31.35,33.02.07,1.74,0,3.46-.17,5.14-.6,5.5,1.29,10.97,5.2,14.88,10.81,10.81,29.28,4.24,30.92-10.97.26-2.36.38-4.76.4-7.19h.01V17.85c0-9.86-7.99-17.85-17.85-17.85Z"/><path class="cls-1" d="m198.16,53.06c-2.59,0-5.14.14-7.66.41-15.21,1.64-21.78,20.11-10.97,30.92h0c3.91,3.91,9.38,5.79,14.88,5.2,1.68-.18,3.4-.24,5.14-.17,17.19.68,31.49,14.22,33.02,31.35.46,5.21-.24,10.23-1.88,14.78-3.24,9.03-10.13,16.32-18.89,20.09-4.79,2.07-10.14,3.08-15.75,2.75-17.3-1.03-31.33-15.07-32.36-32.36-.15-2.56-.02-5.06.35-7.48.9-5.76-.96-11.61-5.08-15.74h0c-10.42-10.42-28.41-4.78-30.76,9.77-.6,3.7-.91,7.49-.91,11.35,0,39.06,31.8,70.88,70.86,70.88,14.93-.01,28.8-4.65,40.23-12.57,7.62-5.27,14.16-11.99,19.22-19.76,7.22-11.1,11.43-24.35,11.43-38.55,0-39.06-31.8-70.86-70.88-70.86Z"/><rect class="cls-1" x="446.48" y="52.91" width="35.45" height="95.08" rx="17.72" ry="17.72"/><circle class="cls-1" cx="464.2" cy="17.72" r="17.72"/><path class="cls-1" d="m547.32,52.91c-26.26,0-47.54,21.29-47.54,47.54s21.29,47.54,47.54,47.54,47.54-21.29,47.54-47.54-21.29-47.54-47.54-47.54Zm0,65.27c-9.79,0-17.72-7.94-17.72-17.72s7.94-17.72,17.72-17.72,17.72,7.94,17.72,17.72-7.94,17.72-17.72,17.72Z"/></g></svg>