<svg width="97" height="44" viewBox="0 0 97 44" fill="none" xmlns="http://www.w3.org/2000/svg">
<path fill-rule="evenodd" clip-rule="evenodd" d="M29.6907 37.5546V38.5156H26.8071V39.6557H29.4672V40.617H26.8071V42.0474H29.8472V43.0311H25.6895V37.5546H29.6907Z" fill="#4A4A4A"/>
<path fill-rule="evenodd" clip-rule="evenodd" d="M30.4911 41.3322H31.6088C31.6088 41.3322 31.6088 41.6006 31.6758 41.7123C31.7429 41.8688 31.8547 41.9804 32.0111 42.0474C32.19 42.1592 32.4135 42.2041 32.7264 42.2041C33.0617 42.2041 33.33 42.1592 33.5535 42.0474C33.7771 41.9357 33.8888 41.7568 33.8888 41.4886C33.8888 41.3098 33.8218 41.1981 33.6653 41.0864C33.4865 41.0193 33.2406 40.9076 32.8829 40.8181L32.3241 40.7063C31.9217 40.5945 31.6088 40.5274 31.3852 40.3933C31.1617 40.3262 30.9829 40.1699 30.8264 39.9463C30.6699 39.7675 30.5582 39.4545 30.5582 39.0745C30.5582 38.8063 30.6252 38.5381 30.737 38.3146C30.8487 38.0463 31.0723 37.8227 31.3852 37.6438C31.7205 37.465 32.1229 37.3756 32.7041 37.3756C33.0841 37.3756 33.4194 37.4205 33.71 37.5546C33.9782 37.6664 34.2018 37.778 34.3583 37.9568C34.5147 38.1357 34.6265 38.3368 34.6936 38.5157C34.7606 38.7392 34.8053 38.9404 34.8053 39.1193H33.71C33.6653 38.8957 33.5982 38.7169 33.4418 38.5604C33.2853 38.3816 33.0394 38.2922 32.57 38.2922C32.4135 38.2922 32.2794 38.337 32.1229 38.3593C31.9664 38.404 31.8547 38.471 31.7876 38.5828C31.6758 38.6498 31.6311 38.8061 31.6311 38.9626C31.6311 39.1415 31.6758 39.2533 31.7876 39.3427C31.8994 39.4098 32.0558 39.4991 32.2123 39.5215L33.5535 39.8568C34.0006 39.9239 34.3359 40.1252 34.6042 40.3041C34.8724 40.5276 34.9842 40.8628 34.9842 41.3099C34.9842 41.8016 34.8277 42.1816 34.5818 42.4275C34.3135 42.6958 34.0453 42.8746 33.71 42.9416C33.3747 43.0087 33.1065 43.0535 32.8382 43.0535C32.3464 43.0535 31.9664 43.0086 31.6311 42.8969C31.3405 42.7851 31.117 42.6064 30.9158 42.4499C30.7593 42.2711 30.6476 42.0251 30.5805 41.8463C30.5134 41.6228 30.4688 41.4439 30.4688 41.2427" fill="#4A4A4A"/>
<path fill-rule="evenodd" clip-rule="evenodd" d="M37.6468 38.5156V43.0311H36.5292V38.5156H34.875V37.5546H39.301V38.5156H37.6468Z" fill="#4A4A4A"/>
<path fill-rule="evenodd" clip-rule="evenodd" d="M40.6413 37.4421V38.4256C40.6413 38.7162 40.5966 38.9846 40.5296 39.1858C40.4849 39.3646 40.3731 39.521 40.2613 39.6327C40.1048 39.6998 39.9707 39.8115 39.8142 39.8562H39.7695V39.454C39.926 39.4093 40.0378 39.2975 40.1048 39.1858C40.2166 39.074 40.2613 38.8951 40.2613 38.5822H39.7695V37.4645H40.6413V37.4421Z" fill="#4A4A4A"/>
<path fill-rule="evenodd" clip-rule="evenodd" d="M41.6248 43.0311V37.5546H44.0166C44.5754 37.5546 45.0225 37.6662 45.3578 37.9568C45.6931 38.225 45.9167 38.5605 46.0284 38.9405C46.1849 39.3205 46.2073 39.7227 46.2073 40.1474C46.2073 40.4827 46.2072 40.7958 46.1402 41.1311C46.0731 41.4664 45.9167 41.7568 45.7602 42.0698C45.5814 42.3603 45.3578 42.6064 45.0449 42.7852C44.7319 42.9417 44.3743 43.0534 43.9495 43.0534H41.5801L41.6248 43.0311ZM42.7425 38.4932V42.0474H43.8378C44.2848 42.0474 44.5755 41.8909 44.7766 41.5109C45.0002 41.1756 45.0896 40.7287 45.0896 40.2369C45.0896 39.7227 45.0449 39.3427 44.9108 39.0745C44.799 38.8509 44.5978 38.6722 44.4637 38.5827C44.2848 38.5157 44.0837 38.4709 43.8601 38.4709H42.7648L42.7425 38.4932Z" fill="#4A4A4A"/>
<path fill-rule="evenodd" clip-rule="evenodd" d="M48.9805 39.2753V38.5154H49.1369C49.6287 38.5154 49.964 38.4483 50.1428 38.2471C50.3217 38.0683 50.4558 37.8223 50.4782 37.5764H51.3499V43.0084H50.2993V39.2529H48.9805V39.2753Z" fill="#4A4A4A"/>
<path fill-rule="evenodd" clip-rule="evenodd" d="M55.3968 39.8123C55.6203 39.8123 55.7992 39.7453 55.9333 39.6335C56.0451 39.5218 56.1121 39.343 56.1121 39.1418C56.1121 39.0301 56.0674 38.8735 56.045 38.8065C55.978 38.6947 55.8886 38.6277 55.7768 38.5382C55.7098 38.4935 55.598 38.4711 55.4415 38.4711C55.218 38.4711 55.0168 38.5383 54.8827 38.6501C54.7262 38.7619 54.7038 38.963 54.7038 39.1418C54.7038 39.3207 54.7485 39.4771 54.8827 39.6335C55.0391 39.7453 55.1733 39.8123 55.3968 39.8123ZM57.3863 41.4219C57.3863 41.6008 57.3416 41.8019 57.3192 41.9808C57.2521 42.2043 57.1404 42.3831 56.9839 42.5396C56.8274 42.7184 56.6039 42.8748 56.3357 42.9866C56.0674 43.0983 55.7768 43.1432 55.3968 43.1432C54.9497 43.1432 54.5697 43.0759 54.2791 42.9194C53.9885 42.763 53.7426 42.5396 53.6085 42.2938C53.4968 42.0702 53.4297 41.8018 53.4297 41.5559C53.4297 41.31 53.4744 41.0195 53.5862 40.796C53.6979 40.5277 53.9215 40.3488 54.3015 40.17C53.8544 39.9465 53.6309 39.6112 53.6309 39.1195C53.6309 38.8289 53.6979 38.5607 53.8544 38.3371C54.0109 38.1136 54.2344 37.9348 54.4803 37.823C54.7485 37.7113 55.0391 37.644 55.3745 37.644C55.665 37.644 55.9333 37.6889 56.1568 37.7559C56.3804 37.823 56.5592 37.9348 56.7604 38.0913C56.9168 38.203 57.0286 38.3594 57.0957 38.5382C57.1627 38.6947 57.2074 38.8735 57.2074 39.0747C57.2074 39.5888 56.9839 39.9465 56.5368 40.17C56.8274 40.3265 57.0733 40.4605 57.2074 40.6617C57.3192 40.8853 57.3863 41.1535 57.3863 41.4888M56.2239 41.5335C56.2239 41.31 56.1568 41.1311 56.045 40.9299C55.8886 40.7735 55.6651 40.6617 55.3968 40.6617C55.1733 40.6617 54.9944 40.729 54.7933 40.8855C54.6368 41.0419 54.5697 41.2206 54.5697 41.5112C54.5697 41.7794 54.6368 41.9583 54.7933 42.1148C54.9497 42.2936 55.1733 42.383 55.3968 42.383C55.5756 42.383 55.7321 42.3384 55.8886 42.2266C56.0003 42.1596 56.0674 42.0478 56.1568 41.936C56.2015 41.7795 56.2239 41.6677 56.2239 41.5335Z" fill="#4A4A4A"/>
<path fill-rule="evenodd" clip-rule="evenodd" d="M61.9893 38.9853H60.9387C60.894 38.8288 60.8716 38.6949 60.7599 38.6054C60.6481 38.4937 60.4916 38.4488 60.3128 38.4488C60.0222 38.4488 59.7763 38.6054 59.6422 38.8737C59.5304 39.1643 59.4634 39.4995 59.4187 39.969H59.4634C59.6869 39.656 60.0222 39.5217 60.4693 39.5217C60.8046 39.5217 61.1175 39.6338 61.3634 39.7902C61.6317 39.9467 61.8105 40.17 61.9223 40.3936C62.034 40.6618 62.1011 40.93 62.1011 41.2206C62.1011 41.6006 62.034 41.9361 61.8775 42.2267C61.7211 42.5396 61.4975 42.7854 61.2293 42.9419C60.9611 43.0984 60.6705 43.1654 60.3352 43.1654C59.5751 43.1654 59.061 42.9419 58.7928 42.4054C58.5022 41.9137 58.3457 41.2431 58.3457 40.4607C58.3457 40.0136 58.4128 39.5666 58.5022 39.1419C58.5692 38.7395 58.7704 38.4043 59.061 38.0914C59.374 37.7784 59.821 37.5994 60.3799 37.5994C60.5363 37.5994 60.7599 37.6442 60.9834 37.7112C61.207 37.7559 61.3634 37.8677 61.4752 37.9795C61.654 38.1359 61.7881 38.2702 61.8105 38.382C61.8776 38.5384 61.967 38.717 61.9893 38.9853ZM61.0058 41.2654C61.0058 40.9748 60.9387 40.7291 60.7822 40.5949C60.6258 40.4608 60.4469 40.3712 60.2458 40.3712C60.0893 40.3712 59.9552 40.416 59.8434 40.4831C59.7316 40.5278 59.6199 40.6395 59.5304 40.7737C59.4634 40.8854 59.4187 41.0642 59.4187 41.3101C59.4187 41.6007 59.4857 41.8468 59.6422 42.0256C59.7987 42.2044 60.0222 42.3159 60.2458 42.3159C60.4022 42.3159 60.514 42.2714 60.6258 42.2043C60.7375 42.1373 60.8493 42.0254 60.9163 41.869C60.9611 41.7125 60.9834 41.4889 60.9834 41.2654" fill="#4A4A4A"/>
<path fill-rule="evenodd" clip-rule="evenodd" d="M64.3132 39.3869C64.3132 40.0575 64.5815 40.3927 65.0956 40.3927C65.2521 40.3927 65.3638 40.3481 65.4979 40.2811C65.6097 40.214 65.6768 40.1245 65.7662 39.9681C65.8333 39.8116 65.878 39.6775 65.878 39.4316C65.878 39.141 65.8332 38.895 65.6991 38.7161C65.5426 38.5373 65.3638 38.4479 65.0956 38.4479C64.9838 38.4479 64.8273 38.448 64.7156 38.515C64.6038 38.5597 64.5367 38.6715 64.4473 38.7833C64.3356 38.9397 64.2909 39.1186 64.2909 39.3421M63.352 41.7117H64.4026C64.4473 42.0917 64.6709 42.2706 65.0062 42.2706C65.1626 42.2706 65.2744 42.2258 65.3415 42.2034C65.4532 42.1364 65.565 42.047 65.6544 41.9352C65.7215 41.8234 65.8109 41.6223 65.8333 41.4435C65.9003 41.2647 65.9003 41.041 65.9003 40.7728V40.728C65.6768 41.0186 65.3415 41.1753 64.8497 41.1753C64.6262 41.1753 64.4026 41.1304 64.1791 41.0634C64.0003 40.9516 63.7991 40.8397 63.6426 40.6833C63.5308 40.5268 63.4191 40.348 63.352 40.1468C63.2849 39.9233 63.2402 39.6999 63.2402 39.4764C63.2402 39.074 63.3073 38.6938 63.4638 38.4255C63.6202 38.1349 63.8438 37.9116 64.112 37.7551C64.4026 37.5986 64.7156 37.5316 65.0956 37.5316C65.5427 37.5316 65.878 37.6432 66.1462 37.8667C66.4144 38.0455 66.5933 38.3139 66.705 38.5822C66.8615 38.8728 66.9286 39.1857 66.9286 39.454C66.9733 39.7446 66.9956 40.0129 66.9956 40.3482C66.9956 40.84 66.9286 41.2869 66.8168 41.6222C66.705 42.0022 66.5933 42.2705 66.4144 42.494C66.2356 42.7176 66.0121 42.874 65.7662 42.9857C65.5427 43.0528 65.2744 43.0976 65.0062 43.0976C64.7156 43.0976 64.4473 43.0528 64.1791 42.941C63.9555 42.8292 63.7767 42.6728 63.6202 42.4493C63.4638 42.2257 63.352 42.0023 63.352 41.6893" fill="#4A4A4A"/>
<path fill-rule="evenodd" clip-rule="evenodd" d="M49.8533 0.0453246H42.1189L42.7672 1.163C42.9907 1.69949 43.3037 2.6605 43.3037 4.04642L43.0131 22.0859C43.0131 23.4271 42.8342 24.3436 42.6331 25.1707L41.873 26.4895H49.2944L48.5121 25.1707C48.2885 24.3436 48.0203 23.4494 48.0203 22.0859L48.1991 4.44891C48.1991 3.06299 48.6015 2.3478 48.8026 1.78897L49.8533 0.0229492V0.0453246Z" fill="#4A4A4A"/>
<path fill-rule="evenodd" clip-rule="evenodd" d="M53.473 0.0447507L54.0766 1.36353C54.4119 1.96708 54.3001 2.74939 54.3001 4.0906L52.7577 20.9229C52.5789 22.2641 52.5789 23.3146 52.3553 23.8958L50.7012 26.2207L57.4072 26.8466L56.5802 24.5665C56.3566 23.7841 57.7873 12.3392 57.7873 12.3392C58.4579 12.451 62.4368 27.4278 62.4368 27.4278L68.5169 27.83L67.9581 26.3994C67.7346 25.5723 67.7793 24.9242 67.8463 23.4712L69.5005 5.83424C69.724 4.49303 70.1487 3.77764 70.3276 3.24115L71.1994 1.81049L64.7392 1.0953L65.3427 3.35303C65.6333 4.69424 64.4486 15.5356 64.4486 15.5356C63.9568 15.4238 59.8214 0.446962 59.8214 0.446962L53.473 0V0.0447507Z" fill="#4A4A4A"/>
<path fill-rule="evenodd" clip-rule="evenodd" d="M82.4856 4.38145L78.6632 3.10742L75.6678 10.1933C76.6737 9.58977 77.8361 9.03101 78.7526 8.87454C80.3397 8.82983 81.8374 9.20984 83.1786 9.99221L71.8453 22.3985L70.3477 28.188C75.3325 29.5739 79.6467 30.4458 82.575 31.5634L85.6822 24.8126C84.7433 25.4609 83.3574 25.8632 82.3739 25.9079C81.2115 25.9079 79.7809 25.6844 77.4114 24.8126L89.1246 11.6911L90.6223 6.54968L82.4856 4.38145Z" fill="#4A4A4A"/>
<path fill-rule="evenodd" clip-rule="evenodd" d="M10.3312 5.14194L11.4489 6.1925C12.0972 6.90781 12.4548 7.6455 12.7901 9.00906L14.2878 14.3292L9.41472 15.8267L7.71587 10.529C7.38056 9.18774 7.22409 8.27128 7.17938 7.4889L7.33585 6.10299L0.205078 8.42785L1.43452 9.65713C1.70276 9.92537 2.55219 10.8867 2.8875 12.2502L8.09587 28.859C8.43118 30.2002 8.72178 31.0049 8.76649 31.5637L8.34176 33.4861L11.0018 32.5471L15.4278 31.0496L14.3325 29.9991C13.6619 29.3732 13.1031 28.7248 12.7678 27.3836L10.9348 21.4599L16.0314 19.7386L18.1773 25.7071C18.4903 27.0483 18.5573 27.6295 18.3561 28.4565L18.1997 30.1778L25.4869 27.8529L23.9445 26.5118C23.6763 25.9529 23.2292 25.6176 22.8939 24.2541L17.5961 7.53365C17.2608 6.19244 17.1491 5.47703 17.1043 4.91819L17.2161 2.77234L10.2418 5.16405L10.3312 5.14194Z" fill="#4A4A4A"/>
<path fill-rule="evenodd" clip-rule="evenodd" d="M25.3514 2.99557C25.5749 3.53206 25.8432 4.6052 26.0667 5.96877L28.0562 22.8903C28.2797 24.2315 28.2797 25.282 28.0562 25.8632L27.2738 27.7856L39.3894 26.5563L39.2776 19.6267L37.6235 21.169C37.1317 21.4372 36.5282 21.7279 35.4552 21.7726L32.8175 21.8845L32.3704 15.8489L34.5163 15.5806C35.3881 15.4689 36.327 15.6924 37.2882 16.4077L36.7517 9.16517C35.6564 10.3946 34.9858 10.5064 33.8681 10.5958L31.6998 10.7746L31.4092 6.08037L33.734 5.81214C35.0752 5.70037 36.3493 6.19207 37.2658 7.13092L36.0587 0.223755L24.502 1.54254L25.3738 3.04032L25.3514 2.99557Z" fill="#4A4A4A"/>
<path fill-rule="evenodd" clip-rule="evenodd" d="M91.4722 10.5742C91.4722 11.8931 92.5229 12.9662 93.8641 12.9662C95.2053 12.9662 96.2559 11.8708 96.2559 10.5742C96.2559 9.27774 95.1606 8.18254 93.8641 8.18254C92.5676 8.18254 91.4722 9.23303 91.4722 10.5742ZM90.9805 10.5742C90.9805 8.98714 92.2546 7.69055 93.8641 7.69055C95.4735 7.69055 96.7253 9.0095 96.7253 10.5742C96.7253 12.139 95.4512 13.4356 93.8641 13.4356C92.277 13.4356 90.9805 12.1613 90.9805 10.5742Z" fill="#4A4A4A"/>
<path fill-rule="evenodd" clip-rule="evenodd" d="M92.3455 11.6237L92.882 8.85193L94.2232 9.12016C94.5585 9.18722 94.8267 9.27658 94.9609 9.34364C95.0726 9.4107 95.1844 9.52252 95.2514 9.679C95.3185 9.83547 95.3185 9.96976 95.2962 10.1262C95.2515 10.3498 95.1844 10.5062 95.0056 10.6179C94.8491 10.7297 94.6256 10.7745 94.335 10.7298C94.4914 10.8416 94.5585 10.9531 94.6256 11.0202C94.6926 11.1319 94.8044 11.311 94.9161 11.5345L95.1844 12.1378L94.4244 11.9815L94.0444 11.3108C93.9326 11.0872 93.8655 10.9085 93.7761 10.8638C93.7314 10.7967 93.7091 10.7074 93.6196 10.7074C93.5526 10.6627 93.4408 10.6403 93.2843 10.5956L93.1726 10.5508L92.949 11.7132L92.3008 11.6014L92.3455 11.6237ZM93.2843 10.171L93.7761 10.2378C94.0667 10.3049 94.2679 10.305 94.335 10.305C94.4467 10.305 94.4914 10.2602 94.5585 10.2378C94.6032 10.1931 94.6256 10.1262 94.6703 10.0591C94.6703 9.94734 94.6703 9.88033 94.6256 9.83563C94.5585 9.76857 94.4691 9.67898 94.402 9.65662C94.335 9.65662 94.1785 9.61212 93.9102 9.58977L93.4185 9.47789L93.262 10.1931L93.2843 10.171Z" fill="#4A4A4A"/>
</svg>
