<svg width="95" height="44" viewBox="0 0 95 44" fill="none" xmlns="http://www.w3.org/2000/svg">
<path d="M40.6895 16.2028C40.6895 16.2028 40.6685 16.3917 40.6685 16.4966C40.7315 18.6788 40.7944 20.84 40.8364 23.0222C40.8783 24.3442 40.8993 25.6871 40.9623 27.009C40.9833 27.6175 41.0672 28.226 41.1511 28.8345C41.1511 28.9814 41.235 29.1282 41.298 29.2751C41.4868 29.6738 41.7806 29.9675 42.2632 30.0304C42.6199 30.0724 42.9976 30.1145 43.3543 30.1565C43.4592 30.1565 43.5641 30.1565 43.6481 30.2195C43.711 30.2614 43.7949 30.3663 43.7949 30.4292C43.7949 30.4922 43.711 30.597 43.6271 30.618C43.5431 30.66 43.4173 30.66 43.3123 30.66C42.1793 30.66 41.0672 30.618 39.9341 30.618C39.3256 30.618 38.6961 30.66 38.0876 30.66C37.605 30.66 37.1224 30.66 36.6608 30.66C36.5768 30.66 36.5139 30.66 36.4509 30.66C36.1991 30.639 36.1152 30.5551 36.1152 30.4082C36.1152 30.2823 36.2621 30.1774 36.4719 30.1565C36.8286 30.1145 37.2063 30.0934 37.563 30.0514C38.1925 29.9885 38.4233 29.548 38.4863 29.1493C38.5492 28.6877 38.6122 28.226 38.6122 27.7434C38.6541 25.8549 38.6751 23.9876 38.6961 22.0991C38.7381 19.3923 38.78 16.6855 38.822 13.9788C38.822 13.0345 38.864 12.0901 38.885 11.1459C38.885 10.957 38.906 10.7474 38.9689 10.5585C39.0738 10.1389 39.3466 10.034 39.6823 10.3067C39.9341 10.4956 40.1859 10.7263 40.4167 10.9571C41.235 11.7754 42.0534 12.6148 42.8717 13.4332C45.4316 15.9931 48.0125 18.5321 50.5724 21.092C51.9363 22.4349 53.2792 23.8196 54.6221 25.1625C54.727 25.2674 54.832 25.4144 55.0628 25.4563C55.0628 25.3094 55.0628 25.2044 55.0628 25.0785C55.0208 23.1691 54.9788 21.2807 54.9368 19.3712C54.9159 18.0913 54.8949 16.8114 54.8529 15.5315C54.8319 14.5872 54.79 13.6638 54.748 12.7196C54.748 12.5307 54.706 12.3211 54.6431 12.1322C54.4542 11.5447 54.0346 11.2088 53.4051 11.1459C53.0694 11.1249 52.7337 11.1041 52.3979 11.0831C52.293 11.0831 52.1881 11.0621 52.1042 11.0201C52.0622 10.9991 51.9993 10.9153 51.9993 10.8523C51.9993 10.7894 52.0622 10.7053 52.1251 10.7053C52.272 10.6633 52.4399 10.6213 52.5868 10.6213C53.2163 10.6213 53.8667 10.6423 54.4962 10.6423C55.4404 10.6423 56.3847 10.6423 57.3289 10.6423C57.8535 10.6423 58.399 10.6213 58.9236 10.6213C59.0495 10.6213 59.1754 10.6423 59.2803 10.6843C59.3433 10.7053 59.4062 10.7894 59.4062 10.8313C59.4062 10.8943 59.3433 10.9781 59.2803 11.0201C59.1964 11.0621 59.0915 11.0621 59.0075 11.0831C58.7977 11.1041 58.5879 11.1039 58.3781 11.1459C57.7486 11.2298 57.2869 11.6495 57.203 12.3C57.182 12.4889 57.14 12.6988 57.14 12.8876C57.1191 13.8318 57.0771 14.797 57.0561 15.7622C56.9932 19.3713 56.9302 22.9594 56.8673 26.5475C56.8673 27.6386 56.8253 28.7086 56.8043 29.7997C56.8043 30.0305 56.8043 30.2614 56.7624 30.4923C56.6994 30.9119 56.4686 31.0587 56.049 30.9328C55.7552 30.8489 55.5244 30.6601 55.3145 30.4713C54.79 29.9677 54.2444 29.4849 53.7199 28.9813C50.7613 26.1276 47.7817 23.295 44.8441 20.4204C43.5851 19.1824 42.3891 17.9026 41.1721 16.6226C41.0252 16.4757 40.8993 16.3497 40.7524 16.2028C40.7314 16.2028 40.6895 16.2028 40.6685 16.2238" fill="#4A4A4A"/>
<path d="M21.5532 9.63485C22.2666 8.06114 23.1688 6.61326 24.3858 5.37527C26.0015 3.7386 27.869 2.52164 30.0302 1.74527C30.5968 1.53544 31.1843 1.30483 31.7718 1.15795C32.9469 0.864186 34.1429 0.612187 35.3389 0.423341C37.1015 0.171547 38.864 0.150574 40.6266 0.171557C41.34 0.171557 42.0534 0.171619 42.7459 0.234567C44.4665 0.339481 46.1661 0.549351 47.8657 0.801146C50.2368 1.17884 52.5868 1.68228 54.9159 2.22784C56.3428 2.56356 57.7696 2.92027 59.1965 3.27698C60.2456 3.52878 61.2947 3.78077 62.3649 4.01159C63.8546 4.30535 65.3654 4.57814 66.9181 4.55716C68.9535 4.53618 70.9259 4.2212 72.8563 3.52877C73.1291 3.42385 73.3809 3.31916 73.6537 3.23523C73.6956 3.23523 73.7376 3.21425 73.8215 3.23523C73.7166 3.34014 73.6117 3.44485 73.4858 3.54977C72.4366 4.43105 71.2196 5.03969 69.9607 5.52229C68.4709 6.10981 66.9182 6.46658 65.3235 6.63445C64.2114 6.76034 63.0783 6.80215 61.9452 6.73921C60.4344 6.67626 58.9447 6.50844 57.4549 6.25664C56.091 6.02583 54.7061 5.75306 53.3422 5.48028C52.2301 5.24947 51.1181 4.97673 49.985 4.72493C48.8309 4.47314 47.6978 4.17939 46.5438 3.94858C45.2848 3.6758 44.0468 3.42404 42.7878 3.19322C41.403 2.96241 39.9971 2.77355 38.5703 2.64765C37.1015 2.52175 35.6327 2.50069 34.1639 2.56364C33.1147 2.6056 32.0656 2.77338 31.0374 3.00419C28.5824 3.54975 26.4632 4.746 24.5747 6.38266C23.5256 7.30591 22.5813 8.29196 21.7 9.38307C21.6371 9.467 21.5532 9.55092 21.4902 9.63485" fill="#4A4A4A"/>
<path d="M53.1526 43.1654C53.1526 43.1654 52.9847 42.9765 52.9218 42.8926C51.9356 41.6756 50.8864 40.5216 49.6694 39.5354C48.0957 38.2554 46.3751 37.2903 44.4237 36.7448C43.3116 36.43 42.1786 36.2201 41.0245 36.1572C40.374 36.1152 39.7445 36.0522 39.0941 36.0732C38.0659 36.0732 37.0587 36.1363 36.0306 36.2202C35.1703 36.2831 34.31 36.3671 33.4497 36.514C32.1907 36.7028 30.9317 36.9545 29.6728 37.2063C28.3508 37.4791 27.0289 37.7939 25.707 38.0877C23.7976 38.5074 21.9091 38.9269 19.9997 39.3256C18.1532 39.7243 16.2857 40.0181 14.3972 40.186C12.8235 40.3329 11.2288 40.3959 9.65511 40.228C7.26306 39.9972 4.99689 39.3675 2.87762 38.2135C2.20617 37.8568 1.59769 37.4371 1.03115 36.9335C0.968199 36.8706 0.905247 36.8287 0.863281 36.7238C0.905247 36.7238 0.968179 36.7448 1.01014 36.7658C2.54189 37.4162 4.15757 37.7938 5.79424 37.9827C7.61975 38.1715 9.44526 38.1506 11.2708 37.7939C12.3199 37.5841 13.3691 37.3531 14.3972 37.1013C16.2647 36.6607 18.1112 36.1993 19.9787 35.7586C21.6363 35.3809 23.294 35.0242 24.9516 34.6885C25.8329 34.5206 26.7142 34.3946 27.5954 34.2687C28.4977 34.1428 29.4 34.0381 30.3232 33.9331C30.9107 33.8702 31.4983 33.8071 32.1068 33.7861C33.4287 33.7441 34.7716 33.7021 36.0935 33.7231C37.3944 33.7441 38.7164 33.8281 40.0173 34.0799C41.0665 34.2688 42.1156 34.4785 43.1228 34.7722C44.8644 35.2758 46.522 36.0104 48.0328 37.0386C50.1311 38.4654 51.7258 40.3119 52.8798 42.5571C52.9637 42.7249 53.0687 42.9138 53.1526 43.0816C53.1526 43.0816 53.1526 43.1234 53.1526 43.1654Z" fill="#4A4A4A"/>
<path d="M86.5376 30.5765C85.0688 30.5765 83.579 30.5975 82.1102 30.6185C81.6276 30.6185 81.145 30.6395 80.6834 30.6605C80.5365 30.6605 80.3686 30.6395 80.2217 30.6185C80.0958 30.6185 80.0119 30.5346 79.9909 30.4087C79.9909 30.2618 80.0958 30.1989 80.2008 30.1779C80.3057 30.1569 80.4316 30.1779 80.5365 30.1359C80.8093 30.094 81.082 30.0729 81.3338 30.0309C81.6696 29.968 81.8794 29.7583 82.0053 29.4436C82.1522 29.0659 82.1941 28.6461 82.2151 28.2474C82.2361 27.4501 82.2781 26.6737 82.2781 25.8763C82.2781 21.5329 82.2781 17.2105 82.2781 12.8671C82.2781 12.8041 82.2781 12.7202 82.2781 12.6573C82.2361 11.797 81.7535 11.2722 80.8932 11.1673C80.5785 11.1254 80.2427 11.1256 79.928 11.1046C79.6762 11.1046 79.5293 10.9995 79.5293 10.8945C79.5293 10.7896 79.6342 10.7057 79.886 10.6638C80.0329 10.6428 80.1798 10.6428 80.3267 10.6428C81.3548 10.6428 82.362 10.7058 83.3902 10.7058C86.055 10.7058 88.7198 10.7058 91.3846 10.7058C91.9092 10.7058 92.4338 10.6219 92.9584 10.496C93.0213 10.496 93.0842 10.454 93.1472 10.454C93.2521 10.454 93.336 10.4751 93.336 10.601C93.336 10.6849 93.336 10.7896 93.336 10.8735C93.1682 11.6079 93.1682 12.3634 93.0842 13.0978C93.0633 13.3706 93.0423 13.6434 93.0003 13.8952C92.9793 14.0631 92.9164 14.2309 92.8534 14.3778C92.8324 14.4407 92.7275 14.5038 92.6646 14.5038C92.6016 14.5038 92.5387 14.3987 92.5177 14.3358C92.4757 14.1889 92.5177 14.0211 92.4548 13.8742C92.3918 13.6224 92.3499 13.3917 92.2449 13.1609C91.9512 12.5943 91.4266 12.3424 90.8181 12.2795C90.2096 12.2165 89.6221 12.1957 89.0136 12.1747C88.1742 12.1537 87.335 12.1327 86.4747 12.1117C86.3907 12.1117 86.3278 12.1117 86.2648 12.1117C85.9501 12.1117 85.9291 12.1535 85.9291 12.4683C85.9291 12.9718 85.9291 13.4966 85.9291 14.0002C85.9291 15.553 85.9291 17.1266 85.9291 18.6794C85.9291 19.2459 85.9291 19.2669 86.5166 19.2459C87.9854 19.2459 89.4752 19.2039 90.944 19.1829C91.2168 19.1829 91.4686 19.0989 91.7413 19.0779C91.9512 19.0569 92.14 18.952 92.2869 18.8051C92.3498 18.7422 92.4128 18.6793 92.4758 18.6374C92.5597 18.5534 92.6646 18.4274 92.7905 18.5113C92.8534 18.5743 92.8954 18.7212 92.8744 18.8051C92.8324 19.2458 92.7695 19.6864 92.7275 20.1481C92.6646 20.9034 92.6017 21.6587 92.5387 22.4141C92.5387 22.54 92.5177 22.687 92.4758 22.8129C92.4548 22.9178 92.3708 22.9807 92.2449 22.9807C92.119 22.9807 92.0771 22.8758 92.0771 22.7499C92.0771 22.5611 92.0351 22.3512 92.0351 22.1623C91.9931 21.4489 91.4686 20.9453 90.7971 20.8614C90.3355 20.7985 89.8739 20.7566 89.4332 20.7566C88.4051 20.7147 87.3979 20.7146 86.3697 20.6936C86.3068 20.6936 86.2438 20.6936 86.1809 20.6936C86.034 20.6936 85.9501 20.7775 85.9501 20.9244C85.9501 20.9874 85.9501 21.0502 85.9501 21.1132C85.9501 23.1066 85.9501 25.1001 85.9501 27.0935C85.9501 27.3453 85.992 27.6181 86.055 27.8699C86.2019 28.4364 86.5796 28.8139 87.1461 29.0028C87.7126 29.1916 88.3001 29.2755 88.9086 29.2545C89.685 29.2545 90.4614 29.2337 91.2377 29.1708C91.5735 29.1498 91.9092 29.0449 92.2239 28.94C92.7065 28.7721 93.0632 28.4152 93.2311 27.9326C93.336 27.6598 93.399 27.3663 93.4829 27.0725C93.5249 26.9466 93.5459 26.7996 93.6088 26.6947C93.6927 26.5268 93.8606 26.5268 93.9446 26.6947C94.0075 26.7996 94.0285 26.9256 94.0285 27.0515C94.0285 27.3662 94.0075 27.7019 93.9655 28.0166C93.8816 28.6881 93.7557 29.3597 93.6508 30.0102C93.6508 30.1151 93.5878 30.2198 93.5668 30.3037C93.4829 30.5345 93.3151 30.6815 93.0842 30.7025C92.7695 30.7445 92.4548 30.7655 92.161 30.7655C90.2935 30.7445 88.426 30.7025 86.5795 30.6815V30.6185" fill="#4A4A4A"/>
<path d="M11.4165 30.5967C9.98968 30.5967 8.54185 30.5967 7.11502 30.5967C6.38062 30.5967 5.66721 30.6387 4.93281 30.6597C4.72298 30.6597 4.49215 30.6596 4.28232 30.6177C4.19839 30.6177 4.11445 30.5759 4.0515 30.5339C3.90462 30.429 3.92562 30.2611 4.09348 30.1981C4.19839 30.1562 4.3243 30.1561 4.42921 30.1351C4.76494 30.0931 5.12166 30.0723 5.45739 30.0093C5.85606 29.9464 6.10783 29.7154 6.25471 29.3377C6.42258 28.8971 6.48555 28.4564 6.50653 27.9948C6.65341 26.2952 6.63242 24.5957 6.63242 22.8751C6.63242 18.7415 6.63242 14.5868 6.63242 10.4532C6.63242 9.97056 6.59045 9.50908 6.5275 9.02647C6.42259 8.22912 5.85603 7.68347 5.0377 7.62053C4.72296 7.59954 4.38725 7.5785 4.07251 7.55752C3.82071 7.55752 3.67383 7.45263 3.67383 7.32674C3.67383 7.20084 3.82069 7.09593 4.0515 7.07495C4.15642 7.07495 4.26135 7.07495 4.36627 7.07495C5.28951 7.07495 6.21274 7.13796 7.13599 7.13796C8.37398 7.13796 9.61198 7.13794 10.85 7.11696C11.5004 7.11696 12.1509 7.09595 12.8224 7.09595C12.9902 7.09595 13.1581 7.117 13.305 7.15896C13.4099 7.17995 13.5148 7.26385 13.4728 7.38975C13.4518 7.45269 13.3679 7.53653 13.284 7.55752C13.221 7.59948 13.1161 7.59952 13.0322 7.59952C12.7175 7.59952 12.3817 7.64155 12.067 7.66253C11.9621 7.66253 11.8572 7.66257 11.7522 7.70454C11.0598 7.85142 10.6821 8.25002 10.5982 8.94246C10.5352 9.48801 10.4933 10.0126 10.4933 10.5582C10.4933 15.3423 10.4933 20.1263 10.4933 24.9104C10.4933 25.7707 10.5352 26.6309 10.7241 27.4912C10.871 28.1837 11.2696 28.6243 11.9621 28.7712C12.4866 28.8761 13.0322 28.981 13.5568 29.0019C14.4381 29.0439 15.2984 29.0439 16.1796 29.0019C16.5993 29.0019 17.0189 28.9181 17.4386 28.8342C18.152 28.6873 18.6556 28.2257 19.0123 27.5963C19.2431 27.1976 19.39 26.757 19.453 26.2953C19.453 26.2114 19.4739 26.1065 19.5159 26.0225C19.5579 25.8966 19.6628 25.8125 19.7887 25.8335C19.9355 25.8335 19.9565 25.9594 19.9775 26.0853C19.9775 26.2112 19.9775 26.3372 19.9775 26.4631C19.8936 27.5752 19.7887 28.7082 19.5369 29.7993C19.5369 29.8832 19.4949 29.9882 19.4739 30.0721C19.39 30.3868 19.1592 30.5967 18.8444 30.6597C18.6346 30.7016 18.4248 30.7437 18.2359 30.7437C16.7671 30.7437 15.2983 30.7227 13.8295 30.7017C13.305 30.7017 12.7594 30.6807 12.2348 30.6807C11.9621 30.6807 11.6893 30.6807 11.4165 30.6807V30.6177" fill="#4A4A4A"/>
<path d="M27.6589 30.5766C26.1691 30.5766 24.6583 30.5976 23.1685 30.6186C22.6649 30.6186 22.1614 30.6396 21.6788 30.6606C21.5319 30.6606 21.385 30.6605 21.2381 30.5976C21.1542 30.5766 21.0912 30.4927 21.0702 30.4088C21.0283 30.3039 21.1332 30.22 21.2381 30.178C21.343 30.157 21.4479 30.157 21.5529 30.136C21.8256 30.094 22.0984 30.073 22.3922 30.031C22.7699 29.968 23.0007 29.7374 23.1266 29.3807C23.2735 28.94 23.3154 28.4784 23.3364 28.0377C23.3784 26.3591 23.3994 24.6804 23.4203 23.0228C23.4203 19.7704 23.4203 16.518 23.4203 13.2657C23.4203 12.951 23.3994 12.6363 23.3574 12.3426C23.3154 11.86 23.0426 11.5453 22.602 11.3564C22.1404 11.1466 21.6578 11.1676 21.1752 11.1047C21.0702 11.1047 20.9443 11.1046 20.8394 11.0626C20.7555 11.0417 20.6926 10.9575 20.6716 10.8736C20.6296 10.7687 20.7345 10.7058 20.8394 10.6848C21.0073 10.6639 21.1961 10.6218 21.364 10.6218C22.3922 10.6218 23.4203 10.6848 24.4485 10.6848C27.1343 10.6848 29.7991 10.6848 32.4849 10.6848C33.0515 10.6848 33.597 10.6219 34.1426 10.4541C34.4154 10.3701 34.4993 10.4541 34.4573 10.7479C34.4154 10.9996 34.3524 11.2304 34.3314 11.4822C34.2685 12.1746 34.2055 12.8671 34.1426 13.5595C34.1426 13.7483 34.1006 13.9372 34.0796 14.1051C34.0796 14.147 34.0586 14.2101 34.0377 14.2521C33.9957 14.357 33.9328 14.5038 33.7859 14.4619C33.639 14.4409 33.66 14.294 33.639 14.1891C33.639 14.1051 33.639 14.0212 33.639 13.9373C33.576 12.9511 32.9885 12.3215 32.0233 12.2376C31.3938 12.1746 30.7643 12.1538 30.1348 12.1118C29.3165 12.0908 28.4982 12.0698 27.6589 12.0488C27.5749 12.0488 27.491 12.0488 27.4071 12.0488C27.1763 12.0698 27.1133 12.1328 27.1133 12.3636C27.1133 12.5105 27.1133 12.6783 27.1133 12.8251V18.5744C27.1133 18.5744 27.1133 18.7633 27.1133 18.8472C27.1343 19.099 27.1972 19.162 27.47 19.183C27.6589 19.183 27.8687 19.183 28.0575 19.183C29.4004 19.162 30.7433 19.141 32.0862 19.12C32.1702 19.12 32.2751 19.12 32.359 19.12C32.8626 19.078 33.3242 18.9941 33.66 18.5534C33.7229 18.4695 33.8278 18.3647 33.9537 18.4277C34.0796 18.4906 34.0586 18.6163 34.0586 18.7422C34.0586 18.994 34.0167 19.267 33.9957 19.5188C33.9118 20.4421 33.8278 21.3862 33.7439 22.3094C33.7439 22.4563 33.7229 22.6031 33.681 22.729C33.66 22.8339 33.576 22.918 33.4501 22.876C33.3872 22.855 33.2823 22.7709 33.2823 22.687C33.2403 22.4981 33.2403 22.2885 33.2403 22.0997C33.2193 21.68 33.0515 21.3443 32.7367 21.0715C32.5269 20.9037 32.2751 20.7987 32.0023 20.7567C31.5197 20.6938 31.0581 20.6517 30.5755 20.6517C29.5893 20.6097 28.6031 20.6097 27.6169 20.5887C27.554 20.5887 27.491 20.5887 27.4281 20.5887C27.2182 20.5887 27.1763 20.6516 27.1553 20.8405C27.1553 20.9454 27.1553 21.0504 27.1553 21.1553C27.1553 22.5611 27.1553 23.988 27.1553 25.3939C27.1553 25.9184 27.1553 26.443 27.1763 26.9466C27.1763 27.1774 27.2182 27.4291 27.2602 27.6599C27.3861 28.2474 27.7218 28.6673 28.3094 28.8771C28.8969 29.0869 29.5263 29.1709 30.1558 29.1709C30.9112 29.1709 31.6666 29.1498 32.443 29.1079C32.7367 29.1079 33.0095 29.024 33.3033 28.9401C33.8698 28.7722 34.2685 28.3945 34.4993 27.8489C34.6042 27.5762 34.6671 27.3033 34.7511 27.0096C34.7721 26.9047 34.7721 26.7997 34.835 26.7158C34.877 26.6319 34.9609 26.527 35.0448 26.527C35.1497 26.506 35.2337 26.6109 35.2337 26.7368C35.2337 26.9047 35.2966 27.0935 35.2756 27.2614C35.2127 27.8699 35.1498 28.4574 35.0868 29.0659C35.0448 29.3806 34.9819 29.6955 34.9189 30.0102C34.835 30.4089 34.6042 30.6606 34.1845 30.6816C33.9327 30.6816 33.66 30.7236 33.4082 30.7236C31.5617 30.7026 29.7152 30.6606 27.8897 30.6396V30.5766" fill="#4A4A4A"/>
<path d="M67.6938 12.1944C67.5679 12.1944 67.463 12.1944 67.3791 12.1944C66.0362 12.2363 64.6933 12.2574 63.3504 12.2994C63.0356 12.2994 62.6999 12.3414 62.3852 12.3624C61.4619 12.4463 60.8534 12.9498 60.5177 13.7891C60.4757 13.894 60.4338 13.999 60.3918 14.1039C60.3498 14.2298 60.2869 14.3347 60.119 14.3137C59.9931 14.2927 59.9512 14.1668 59.9512 14.0409C59.9512 13.852 59.9512 13.6634 59.9721 13.4746C60.161 12.5093 60.3498 11.5441 60.5387 10.5789C60.5387 10.5369 60.5596 10.4739 60.5806 10.4319C60.6646 10.243 60.7275 10.2012 60.9164 10.2641C61.1262 10.3271 61.357 10.4319 61.5668 10.4529C62.2173 10.5368 62.8468 10.6207 63.4973 10.6417C64.6933 10.6627 65.9103 10.6627 67.1273 10.6627C70.1279 10.6627 73.1284 10.6627 76.1289 10.6627C76.8214 10.6627 77.4928 10.5998 78.1853 10.4739C78.6888 10.39 78.7308 10.4319 78.7308 10.9355C78.7308 12.0056 78.6889 13.0758 78.6679 14.1459C78.6679 14.2508 78.6679 14.3558 78.6049 14.4397C78.563 14.5026 78.479 14.5655 78.4161 14.5655C78.3531 14.5655 78.2692 14.4816 78.2272 14.4187C78.1853 14.3348 78.1643 14.2088 78.1643 14.1249C78.1433 13.7892 78.1014 13.4536 77.8496 13.2018C77.5348 12.866 77.1781 12.6141 76.7165 12.5092C76.1499 12.3623 75.5834 12.2784 74.9959 12.2574C73.8628 12.2364 72.7507 12.2154 71.6176 12.1944C71.5547 12.1944 71.4707 12.1944 71.3658 12.1944C71.3658 12.2993 71.3449 12.4043 71.3449 12.5092C71.3449 17.1674 71.3448 21.8256 71.3658 26.4838C71.3658 27.2182 71.4498 27.9527 71.4918 28.6871C71.4918 28.855 71.5547 29.0439 71.5966 29.2117C71.7225 29.6733 72.0373 29.9251 72.4989 29.9881C72.9605 30.051 73.4012 30.0719 73.8628 30.1138C73.9677 30.1138 74.0726 30.1139 74.1776 30.1558C74.3035 30.1768 74.3874 30.2607 74.3664 30.4076C74.3664 30.5335 74.2615 30.5754 74.1566 30.5964C73.9467 30.6174 73.7159 30.6594 73.5061 30.6384C72.331 30.6174 71.156 30.5754 69.981 30.5544C69.0787 30.5544 68.1974 30.5964 67.2952 30.6174C66.8336 30.6174 66.3719 30.6174 65.9313 30.6174C65.8264 30.6174 65.7215 30.6174 65.6165 30.5754C65.4906 30.5544 65.3857 30.4915 65.3857 30.3656C65.3857 30.2397 65.4906 30.1558 65.6165 30.1348C65.7215 30.1139 65.8473 30.1348 65.9522 30.1138C66.225 30.0719 66.4978 30.051 66.7496 30.0091C67.0853 29.9671 67.2952 29.7572 67.4001 29.4425C67.484 29.1907 67.5679 28.9389 67.5679 28.6871C67.6309 27.575 67.6938 26.4628 67.6938 25.3507C67.6938 21.0702 67.6938 16.8107 67.6938 12.5302C67.6938 12.4253 67.6938 12.3205 67.6938 12.1736" fill="#4A4A4A"/>
<path d="M77.9972 39.473C77.9762 39.7458 78.0181 39.9557 78.186 40.1446C78.4168 40.4174 78.7106 40.5852 79.0673 40.6481C79.6968 40.7531 80.2843 40.6482 80.8718 40.3964C81.0187 40.3334 81.1026 40.2494 81.0607 40.0606C80.9138 39.494 81.5433 39.1163 81.9629 39.2002C82.0678 39.2212 82.1728 39.2422 82.2987 39.2842C82.5924 38.9695 82.8442 38.5918 83.054 38.2141C83.3688 37.6895 83.6625 37.1649 83.9563 36.6403C84.1032 36.4095 84.271 36.1997 84.5228 36.0948C84.6068 36.0738 84.7117 36.0318 84.7956 36.0528C85.0684 36.0947 85.1523 36.3467 84.9635 36.5356C84.8376 36.6825 84.6697 36.7872 84.5228 36.9131C84.1661 37.2279 84.1242 37.5426 84.4179 37.9203C84.5438 38.0881 84.6907 38.2352 84.8166 38.4031C85.0684 38.6759 85.2782 38.9695 85.4041 39.3052C85.6139 39.8717 85.4671 40.3965 85.0054 40.7532C84.8586 40.8791 84.6907 40.9838 84.5019 41.0677C83.7045 41.4034 82.9072 41.4034 82.0888 41.0887C81.837 40.9838 81.6062 40.816 81.3754 40.6481C81.2915 40.6062 81.2285 40.5223 81.1866 40.4804C80.8299 40.6692 80.5151 40.8581 80.1794 41.0049C79.403 41.3407 78.5847 41.5083 77.7454 41.2985C77.3677 41.2146 77.032 41.0467 76.7592 40.7739C76.4654 40.4801 76.2975 40.1444 76.3185 39.7248C76.3185 39.6199 76.3185 39.5151 76.3185 39.3682C76.2136 39.4522 76.1507 39.494 76.1087 39.557C75.5212 40.1655 74.8707 40.6692 74.0944 41.0049C73.318 41.3407 72.5207 41.5083 71.6813 41.2985C71.3036 41.2146 70.9679 41.0677 70.6951 40.7949C70.3594 40.4592 70.1706 40.0396 70.2545 39.557C70.2545 39.515 70.2545 39.4521 70.2545 39.3472C70.1076 39.4941 70.0237 39.5781 69.9188 39.662C69.5621 39.9977 69.2263 40.3544 68.8486 40.6481C68.2401 41.1098 67.5477 41.3614 66.7714 41.2985C66.6035 41.2985 66.4356 41.2567 66.2887 41.1937C65.7432 40.9839 65.5543 40.5431 65.8061 40.0186C65.974 39.6618 66.2048 39.3471 66.4146 39.0114C66.6035 38.7177 66.8133 38.4448 67.0231 38.1721C67.0651 38.1091 67.1071 38.0252 67.149 37.9623C67.212 37.8154 67.149 37.7314 67.0021 37.6685C66.7923 37.6055 66.5825 37.6266 66.3936 37.7525C66.0579 37.9623 65.7222 38.1723 65.4074 38.4031C64.673 38.9906 64.0646 39.683 63.5819 40.4804C63.456 40.7112 63.3301 40.9838 63.1203 41.0887C62.9105 41.1936 62.6167 41.1517 62.3649 41.1517C62.1761 41.1517 61.9872 41.1517 61.7564 41.1517C62.0082 40.6271 62.3439 40.2076 62.6167 39.683C62.4279 39.725 62.344 39.8509 62.239 39.9348C61.5046 40.6272 60.6653 41.0887 59.7001 41.3405C58.6929 41.6133 57.6648 41.6972 56.6576 41.3825C55.5455 41.0468 54.7691 40.3335 54.4964 39.1794C54.3705 38.6759 54.4334 38.1721 54.5593 37.6685C54.8111 36.7033 55.2937 35.864 55.9232 35.0876C57.1192 33.5978 58.63 32.5068 60.3925 31.7724C61.3158 31.3947 62.302 31.1639 63.3092 31.2269C63.7708 31.2478 64.2114 31.3946 64.5891 31.6674C65.2816 32.129 65.4704 32.6957 65.1766 33.5979C64.9668 34.2274 64.5471 34.71 64.0226 35.1086C62.9315 35.927 61.6935 36.2208 60.3296 35.99C59.847 35.9061 59.4063 35.6751 59.0077 35.3394C59.0706 35.3184 59.1126 35.2764 59.1546 35.2764C59.1965 35.2764 59.2595 35.3184 59.3014 35.3394C59.9939 35.885 60.7703 35.843 61.5256 35.6122C62.7217 35.2555 63.6659 34.5211 64.3583 33.4929C64.5262 33.2621 64.6311 32.9683 64.715 32.6956C64.8619 32.2129 64.6521 31.7935 64.1904 31.5627C63.9596 31.4368 63.7078 31.3736 63.4351 31.3736C62.6797 31.3317 61.9872 31.5414 61.3368 31.8562C59.5113 32.7794 58.0635 34.0805 57.0982 35.906C56.7835 36.4935 56.5737 37.1231 56.5317 37.8155C56.4478 39.2633 57.392 40.3962 58.8608 40.5431C60.3296 40.711 61.6096 40.2704 62.6587 39.2632C62.9734 38.9485 63.2672 38.5707 63.498 38.1931C64.5471 36.4305 65.5963 34.6679 66.6245 32.9053C66.6874 32.8004 66.7504 32.6955 66.8972 32.6746C67.5477 32.5696 68.2192 32.4649 68.8696 32.36C68.8696 32.36 68.9116 32.3598 68.9326 32.4018C67.5897 34.4371 66.2468 36.4725 64.8829 38.5289C65.0298 38.5708 65.0927 38.466 65.1766 38.4031C65.6173 38.0883 66.0369 37.7315 66.4776 37.4377C66.8762 37.1649 67.3169 36.9551 67.8205 36.8711C68.0723 36.8292 68.3451 36.8502 68.5969 36.9341C68.9536 37.06 69.0585 37.3118 68.8906 37.6475C68.7857 37.8573 68.6598 38.0462 68.5339 38.2351C68.2611 38.6337 67.9673 39.0115 67.6946 39.3892C67.5897 39.5361 67.4848 39.6829 67.4218 39.8508C67.2749 40.1865 67.4218 40.4592 67.7575 40.5431C68.0932 40.648 68.45 40.6062 68.7437 40.4174C68.9745 40.2705 69.1844 40.1027 69.3942 39.9348C69.8349 39.5361 70.2125 39.0955 70.5482 38.6339C71.2197 37.7106 72.122 37.1439 73.2551 36.9131C73.7377 36.8082 74.2203 36.7663 74.7029 36.9131C74.8707 36.9761 75.0386 37.039 75.1645 37.1439C75.4792 37.3747 75.5422 37.7736 75.3114 38.0883C75.1645 38.2771 74.9756 38.466 74.7658 38.5919C74.1363 39.0115 73.4019 39.2213 72.6675 39.3052C72.4157 39.3262 72.1639 39.3472 71.9121 39.3682C71.8072 39.5571 71.8702 39.7249 71.9541 39.8928C72.1639 40.2495 72.4787 40.4592 72.8773 40.5221C73.8426 40.69 74.7029 40.4173 75.4583 39.8508C75.8779 39.536 76.2346 39.1583 76.5284 38.7176C77.0949 37.8573 77.8713 37.2909 78.8365 37.0182C79.1932 36.9132 79.5919 36.8294 79.9696 36.8084C80.2633 36.8084 80.5781 36.8502 80.8508 36.9131C80.9767 36.9341 81.1236 37.039 81.2285 37.1229C81.5433 37.3957 81.6062 37.7526 81.3544 38.0883C81.1656 38.3191 80.9558 38.508 80.704 38.6549C80.0955 39.0326 79.403 39.2003 78.6896 39.2842C78.4588 39.3052 78.207 39.3262 77.9552 39.3472M82.3826 39.2842C82.5924 39.7878 82.3826 40.1026 81.8161 40.1026C81.7741 40.1026 81.7321 40.1026 81.6901 40.1026C81.5013 40.1026 81.4384 40.2075 81.5013 40.3544C81.5433 40.4383 81.6062 40.5432 81.6901 40.5851C81.837 40.6481 82.0259 40.7322 82.1937 40.7322C83.096 40.7741 83.9983 39.9137 84.0402 39.0114C84.0612 38.4239 83.9353 37.8785 83.8094 37.3119C83.8094 37.27 83.7674 37.2279 83.7255 37.1649C83.2639 37.8783 82.8232 38.5708 82.3616 39.2842M71.8072 39.1794C71.8072 39.1794 71.8492 39.2212 71.8702 39.2422C72.038 39.2212 72.1849 39.2004 72.3528 39.1794C73.0872 39.0536 73.7167 38.7386 74.1993 38.1721C74.3462 37.9832 74.493 37.7945 74.577 37.5637C74.7238 37.186 74.493 36.8922 74.0734 36.9341C73.8426 36.9551 73.5908 37.018 73.4019 37.1439C72.7934 37.5006 72.2689 38.0044 71.9751 38.6549C71.8912 38.8227 71.8492 39.0116 71.8072 39.1794ZM77.8922 39.2422C78.1231 39.2212 78.27 39.2004 78.4378 39.1794C79.1722 39.0536 79.8017 38.7386 80.3053 38.1931C80.4732 38.0042 80.62 37.7945 80.704 37.5637C80.8509 37.186 80.5991 36.8922 80.2004 36.9341C79.9696 36.9551 79.7178 37.018 79.5289 37.1439C78.8994 37.5006 78.4378 38.0252 78.1021 38.6756C78.0182 38.8225 77.9972 39.0114 77.9133 39.2632" fill="#4A4A4A"/>
<path d="M88.2973 39.4724C88.2554 39.8082 88.3813 40.039 88.5911 40.2488C88.8849 40.5426 89.2416 40.6686 89.6612 40.6896C90.6264 40.6896 91.4657 40.3957 92.1582 39.7452C92.4729 39.4515 92.7247 39.1158 92.9975 38.7801C93.0605 38.7171 93.1024 38.6543 93.1654 38.5703C93.1863 38.6333 93.2073 38.6541 93.2073 38.6751C92.4729 39.8291 91.5077 40.6896 90.2068 41.1722C89.5144 41.445 88.78 41.5498 88.0456 41.3609C87.479 41.2141 86.9754 40.9414 86.7236 40.3748C86.5558 39.9971 86.5767 39.5983 86.7236 39.2207C86.9125 38.6751 87.2692 38.2555 87.7098 37.9197C88.4862 37.3112 89.3675 36.9965 90.3537 36.9336C90.6894 36.9336 91.0251 36.9755 91.3189 37.1224C91.9064 37.4161 92.0113 37.9617 91.5497 38.4233C91.3608 38.6121 91.13 38.7592 90.8992 38.8851C90.1438 39.3048 89.3255 39.4515 88.4652 39.4724C88.4232 39.4724 88.3603 39.4724 88.2764 39.4724M88.2764 39.3257C88.4862 39.4306 88.6541 39.3257 88.8219 39.3257C89.6402 39.1998 90.2697 38.78 90.7943 38.1505C90.8992 38.0246 91.0041 37.8778 91.0671 37.731C91.2139 37.3533 91.0041 37.0387 90.6054 37.0806C90.4166 37.0806 90.2068 37.1225 90.0389 37.2274C89.3465 37.6051 88.7799 38.1087 88.4442 38.8431C88.3813 38.99 88.3393 39.1788 88.2764 39.3467" fill="#4A4A4A"/>
</svg>
