<svg width="91" height="44" viewBox="0 0 91 44" fill="none" xmlns="http://www.w3.org/2000/svg">
<path fill-rule="evenodd" clip-rule="evenodd" d="M66.1879 18.4917L67.8636 16.731L56.0703 17.8977L56.2188 16.8159L67.5242 15.6492L61.9245 13.3798L62.1791 12.6374L68.6908 15.31L70.9604 0.334999L71.8724 0.165405L69.6877 14.801L73.1239 11.3011L73.633 11.704L70.0271 15.3947L78.1509 14.5465L77.9812 15.6492L71.2997 16.3069L74.8844 17.8128L74.545 18.4917L69.6241 16.5614H69.4544L68.9453 19.828L68.0333 19.9126L68.4363 17.0704L66.6121 18.9158L66.1879 18.4917Z" fill="#4A4A4A"/>
<path fill-rule="evenodd" clip-rule="evenodd" d="M79.7418 23.349C79.9115 23.0096 80.9933 22.2674 82.2447 22.1825C83.4113 22.0128 84.2597 22.9459 84.0901 23.858C83.7507 25.9579 83.2628 29.3728 83.4961 31.8121C83.7507 34.3998 85.1718 35.5666 87.0172 35.3969C87.8656 35.312 88.5231 34.9727 89.0322 34.6545C90.1988 33.8273 90.623 34.3999 89.711 35.3119C88.7989 36.1392 87.6959 36.6484 86.4445 36.8181C83.0083 37.1575 80.5903 35.1422 80.166 31.303C80.0812 30.391 79.9115 29.4578 79.9115 28.9699C79.8267 28.6305 79.7418 28.6304 79.5721 28.885C79.1479 29.7122 78.4904 30.9 78.3207 31.8121C78.0662 32.8938 77.4086 33.9757 76.7299 34.0606C76.3057 34.0606 75.8178 33.7211 75.3936 33.4666C75.0542 33.2121 74.5663 32.8729 74.4815 32.3002C74.4815 32.0456 74.3967 31.6212 74.3967 31.303C74.3967 31.0485 74.3118 30.9638 74.1422 31.2184C73.4846 32.2153 72.3816 34.2303 70.3878 34.4C68.6273 34.6545 66.782 33.891 66.379 32.3002C66.2941 31.9608 66.2093 31.9607 66.0396 32.2152C65.3608 33.5515 63.6215 35.4817 62.0307 35.6514C60.6944 35.7362 59.6975 35.1423 58.9339 34.5696C58.8491 34.4848 58.7642 34.4848 58.5945 34.5696C58.0855 35.1635 57.2582 35.9058 56.2613 36.33V33.9119C57.8522 32.8938 58.5309 29.1397 58.1067 25.6187C58.0218 24.7914 57.5128 23.7732 56.6007 23.858C56.431 23.858 56.3462 23.8581 56.2613 23.9429V21.4402C56.6856 21.2705 57.0037 21.0157 57.3431 20.9309C58.2551 20.5067 59.2733 20.422 59.9308 20.8462C60.8429 21.4189 60.9489 22.5217 61.0974 23.858V26.5306C61.0974 26.5306 61.7762 26.2761 61.6065 27.1246C61.4368 27.8669 61.0974 30.4758 61.2671 31.8121C61.4368 33.1484 61.6913 33.7423 62.3489 33.6574C63.9397 33.4877 65.4457 29.8185 66.1244 25.1309C66.1244 24.8763 65.785 24.452 66.4638 24.1974C66.9728 23.8581 67.8849 23.6035 68.6273 23.6035C69.3061 23.5186 69.7939 23.5187 69.8787 23.9429C69.8787 24.3671 69.6242 24.5368 69.4545 24.9398C69.2 25.9367 68.8606 28.6943 69.0303 30.4548C69.2 31.8759 69.6242 32.5546 70.3666 32.4698C72.5513 32.2152 73.8028 27.1882 74.2906 25.2792C74.3755 24.855 74.63 24.7066 74.9694 24.5369C75.4784 24.2824 77.0693 23.6036 77.5571 24.2824C77.7268 24.5369 77.8116 24.8762 77.6419 25.5337C77.4723 26.361 77.5571 27.464 77.6419 28.0367C77.7268 28.5458 77.8116 28.5456 77.9813 28.1214C78.2359 27.782 78.8085 26.2762 79.2328 25.1096C79.4873 24.346 79.5722 23.6883 79.7418 23.349ZM56.2189 36.3088V33.891C55.9644 34.0607 55.7947 34.1455 55.5402 34.1455C54.7766 34.2303 54.3736 33.3819 54.2887 32.3002C53.9494 29.6276 54.7129 26.0215 55.2008 24.9398C55.3705 24.4307 55.7947 24.1126 56.1977 23.9429V21.4402C54.9463 22.1189 53.4403 22.946 52.9312 23.3702C52.2525 23.9641 51.6798 27.0609 51.4252 28.9699C51.2556 30.2213 51.0859 31.1546 50.6829 31.8121C49.9193 33.0635 47.2467 34.4 44.9135 34.6545C41.8167 34.9939 39.8865 33.0635 39.632 30.4758C39.0381 25.0458 41.5622 18.5978 43.7257 16.0101C44.2347 15.4162 44.7226 15.098 45.4862 15.0132C46.3134 14.9284 46.9073 15.9253 47.077 16.8585C47.1618 17.707 46.2498 17.8555 45.7407 17.9403C45.4862 17.9403 45.4013 18.1098 45.3165 18.2795C45.062 19.1067 44.3196 21.5461 44.4681 23.1369C44.6378 24.4732 45.6347 25.1519 47.5649 24.9822C50.0678 24.7277 51.7434 21.0583 51.3192 17.1131C50.895 13.2739 48.0527 11.7679 45.2105 12.0861C42.8773 12.3406 40.6077 13.3374 40.1198 13.8465C39.3562 14.4404 36.3443 19.1918 35.3474 24.0491C35.3474 24.0491 34.7535 23.9642 34.5201 24.0491C34.1808 24.0491 34.0111 24.2187 33.9262 24.5581C33.9262 24.8127 33.5869 25.7247 31.996 25.8944C30.2355 26.0641 28.8993 25.3006 28.7296 23.5613C28.475 20.8038 29.5568 17.4523 31.1476 17.2827C31.8264 17.1978 31.9748 17.622 32.0597 18.025C32.0597 18.4492 31.8052 18.5977 31.5506 18.5977C31.4658 18.5977 31.3809 18.7674 31.3809 18.8522C31.2961 19.1068 31.2112 19.531 31.2112 19.934C31.2961 20.8673 31.8052 21.3552 32.3778 21.2703C33.2899 21.1855 34.0535 19.8492 33.799 18.0887C33.7141 17.1766 33.3747 16.5828 33.0566 16.0738C32.6324 15.6495 32.0597 15.5645 31.2961 15.6494C30.1295 15.7342 28.7083 16.2434 28.1144 16.8161C27.372 17.5585 25.9297 20.5704 25.7812 22.9248V23.6672C26.0358 26.0852 27.8811 27.9306 30.1295 27.6761C32.7172 27.4215 34.9868 25.8307 34.9868 25.8307C34.9868 25.8307 34.4777 28.4184 34.7323 30.7728C35.2413 35.9482 38.9956 38.6422 43.5984 38.1332C47.6921 37.7089 50.7041 34.8666 51.298 34.3788C51.3828 34.2939 51.5525 34.2091 51.6374 34.3788C51.8071 34.803 52.8888 36.712 55.3917 36.4786C55.6462 36.3938 55.9008 36.3936 56.1341 36.3088" fill="#4A4A4A"/>
<path fill-rule="evenodd" clip-rule="evenodd" d="M0.435724 41.4837C0.435724 41.4837 0.775094 41.6533 0.944781 41.6533C1.62353 41.5685 3.278 38.0475 5.03851 30.6025C6.45964 24.918 6.96868 20.3152 6.96868 20.3152C6.96868 20.3152 6.88386 20.1454 6.79902 19.8909C6.71417 19.297 6.9687 18.4698 7.62624 18.0455C8.30499 17.6213 10.214 16.7941 10.8927 16.7092C11.8048 16.6244 12.3987 17.2184 12.5684 18.385C12.9078 20.3152 13.1623 24.5787 13.2471 26.9967C13.2471 30.0935 13.5017 31.8539 13.5865 32.9356C13.6713 33.1902 13.7562 33.3599 14.0107 33.0206C14.9228 31.9388 15.8561 29.7541 16.5985 27.1663C18.1893 22.1393 18.6135 18.7244 18.6135 18.7244C18.6135 18.7244 18.3589 17.1335 19.2074 16.2214C19.8013 15.6275 21.5406 14.6308 22.6436 14.5459C23.4708 14.3762 23.9798 15.1397 24.1495 15.9669C24.4041 17.8971 24.4041 21.3968 24.3192 27.0177C24.3192 32.7022 24.1495 35.2051 24.6586 36.5626C24.9131 37.2202 25.6555 37.3052 25.4858 37.8143C25.2313 38.493 25.1465 39.0655 24.2344 39.2352C22.8133 39.3201 20.6497 38.6415 20.3104 35.7144C19.8013 32.2782 19.8862 28.8631 19.8862 26.2541C19.8862 25.8299 19.7165 25.7451 19.5468 26.2541C19.0377 28.0147 18.0408 31.451 16.6197 34.3781C15.5379 36.7961 13.6926 38.3868 12.8653 38.4717C12.526 38.5565 12.0169 38.2172 11.4442 37.793C10.7654 37.284 10.2776 36.8809 10.2776 36.3718C10.1079 34.0386 9.85338 30.5176 9.53521 27.4209C9.53521 26.9118 9.28069 26.9119 9.111 27.5058C8.51709 29.5208 7.60501 32.7023 6.60809 35.5445C5.52634 38.4717 3.59614 42.9898 1.83564 43.1595C0.584192 43.2443 0.159988 42.3958 0.159988 41.8232C0.0751438 41.3141 0.41451 41.314 0.499354 41.4837" fill="#4A4A4A"/>
</svg>
