<svg width="68" height="44" viewBox="0 0 68 44" fill="none" xmlns="http://www.w3.org/2000/svg">
<g clip-path="url(#clip0_1414_3198)">
<path fill-rule="evenodd" clip-rule="evenodd" d="M64.6187 34.0913C64.4504 34.9195 64.4504 38.2277 66.9621 39.8825C67.8003 40.3797 65.6236 42.0331 61.4371 41.8683C61.4371 41.8683 46.1961 41.3712 36.9863 30.1198C36.9863 30.1198 54.2357 39.2206 64.4504 33.9266C64.4504 33.9266 64.6187 33.9266 64.6187 34.0913Z" fill="#4A4A4A"/>
<path fill-rule="evenodd" clip-rule="evenodd" d="M41.5071 25.3227V29.2929H37.1523C37.1523 26.3142 37.1523 24.8256 37.1523 24.8256C37.1523 17.5458 40.5022 13.7404 46.3636 13.7404C48.5403 13.7404 50.0484 14.4023 50.0484 14.4023V29.2929H45.6936V25.3227H41.5071ZM43.852 17.7105C42.1771 18.3725 41.5071 20.0273 41.5071 22.0131H45.6936C45.6936 20.3583 45.5254 18.8696 45.6936 17.2148C45.0237 17.2148 44.3537 17.3796 43.852 17.7105Z" fill="#4A4A4A"/>
<path fill-rule="evenodd" clip-rule="evenodd" d="M14.8789 14.4027H19.5686V29.6243H14.8789V14.4027Z" fill="#4A4A4A"/>
<path fill-rule="evenodd" clip-rule="evenodd" d="M35.817 14.0712H31.1273V17.2146C29.2856 15.2288 26.2708 13.905 21.916 14.0712V29.2928H26.439V19.2004C26.439 19.2004 31.2955 19.6962 31.2955 26.976V29.2928H35.817V14.0712Z" fill="#4A4A4A"/>
<path fill-rule="evenodd" clip-rule="evenodd" d="M65.1214 29.293L61.9398 22.6751C61.9398 22.6751 62.9448 22.5089 63.7815 20.3583C63.7815 20.3583 65.4564 16.3867 61.2698 14.4023C61.2698 14.4023 59.0932 13.4094 52.0586 14.2361V29.293H56.5801V17.5458C56.5801 17.5458 59.26 17.2148 59.7632 18.5387C59.7632 18.5387 61.1031 20.6893 57.7533 21.3512L56.9151 21.516L60.4331 29.293H65.1214Z" fill="#4A4A4A"/>
<path fill-rule="evenodd" clip-rule="evenodd" d="M36.9863 18.5388C36.9863 18.5388 38.158 11.5885 47.5361 11.7547C47.5361 11.7547 48.206 9.76894 44.1877 9.60275C42.6796 9.60275 44.3545 6.95644 45.6944 6.62547C47.0343 6.29451 37.6563 4.63968 36.9863 18.5388Z" fill="#4A4A4A"/>
<path fill-rule="evenodd" clip-rule="evenodd" d="M6.00603 9.4379C6.00603 9.4379 3.49296 9.76886 5.67105 5.46631C6.1728 4.47483 4.83288 3.48193 3.66117 3.31574C2.65622 3.31574 5.00109 1.49613 9.18763 1.8271C9.18763 1.8271 19.2356 2.15807 28.4454 13.4095C28.4454 13.4095 20.5755 6.12824 6.00603 9.4379Z" fill="#4A4A4A"/>
<path fill-rule="evenodd" clip-rule="evenodd" d="M6.50789 21.516C6.6761 21.516 7.00964 21.6822 7.34606 21.6822C8.68455 21.6822 9.68949 20.8541 9.68949 19.6964C9.68949 18.5387 8.68455 17.7106 7.34606 17.7106H6.00614V29.293H1.31641V14.0714H9.52272C12.7043 14.0714 14.211 16.8839 14.211 19.2007C14.211 22.0132 11.3644 24.8257 7.51283 24.8257V24.6595L6.50789 21.516Z" fill="#4A4A4A"/>
</g>
<defs>
<clipPath id="clip0_1414_3198">
<rect width="67" height="43" fill="white" transform="translate(0.726562 0.165405)"/>
</clipPath>
</defs>
</svg>
